<svg width="900" height="900" viewBox="0 0 900 900" fill="none" xmlns="http://www.w3.org/2000/svg">
  <defs>
    <linearGradient id="panelGradient" x1="0" y1="0" x2="0" y2="1">
      <stop offset="0" stop-color="#F4C47C" />
      <stop offset="1" stop-color="#D47A2C" />
    </linearGradient>
    <linearGradient id="panelGradient2" x1="1" y1="0" x2="0" y2="1">
      <stop offset="0" stop-color="#214950" />
      <stop offset="1" stop-color="#152F36" />
    </linearGradient>
    <linearGradient id="panelGradient3" x1="0" y1="1" x2="1" y2="0">
      <stop offset="0" stop-color="#622E1B" />
      <stop offset="1" stop-color="#2B1810" />
    </linearGradient>
    <clipPath id="roundClip">
      <rect width="360" height="520" rx="36" ry="36" />
    </clipPath>
    <filter id="shadow1" x="-20%" y="-20%" width="140%" height="140%" filterUnits="objectBoundingBox">
      <feGaussianBlur stdDeviation="28" result="blur" />
      <feOffset dy="16" dx="0" result="offsetBlur" />
      <feMerge>
        <feMergeNode in="offsetBlur" />
        <feMergeNode in="SourceGraphic" />
      </feMerge>
    </filter>
  </defs>
  <rect width="900" height="900" fill="#120908" />
  <g transform="translate(70 150)">
    <g filter="url(#shadow1)">
      <rect x="20" y="-40" width="340" height="500" rx="32" fill="url(#panelGradient)" opacity="0.85" />
    </g>
  </g>
  <g transform="translate(80 140)">
    <rect width="360" height="520" rx="36" fill="#FDF8F4" opacity="0.12" />
    <g clip-path="url(#roundClip)">
      <rect width="360" height="520" fill="url(#panelGradient)" opacity="0.55" />
      <path d="M-20 180C60 150 180 148 260 168C320 182 380 212 440 220V520H-40L-20 180Z" fill="#D47A2C" fill-opacity="0.35" />
      <path d="M40 200C100 160 200 144 260 180C320 216 340 310 320 360C300 410 240 440 180 440C120 440 80 420 60 380C40 340 20 240 40 200Z" fill="#401F14" fill-opacity="0.52" />
      <path d="M200 140C220 110 280 110 300 140C324 180 352 292 332 332C312 372 236 364 216 324C196 284 180 170 200 140Z" fill="#FDF8F4" fill-opacity="0.55" />
      <circle cx="180" cy="200" r="42" fill="#FDF8F4" fill-opacity="0.82" />
      <circle cx="260" cy="260" r="38" fill="#FBE9D4" fill-opacity="0.9" />
      <path d="M120 332C120 292 150 260 188 260H230C268 260 298 292 298 332C298 370 268 404 230 404H188C150 404 120 370 120 332Z" fill="#632E1C" />
    </g>
  </g>
  <g transform="translate(450 70)">
    <rect width="320" height="420" rx="32" fill="url(#panelGradient2)" opacity="0.92" />
    <path d="M50 120C82 86 154 86 186 120L266 206C302 244 274 306 222 306H114C62 306 34 244 70 206L150 120Z" fill="#F4C47C" fill-opacity="0.26" />
    <circle cx="160" cy="148" r="74" fill="#0F2328" opacity="0.55" />
    <circle cx="160" cy="152" r="46" fill="#F4C47C" opacity="0.75" />
    <rect x="92" y="246" width="136" height="44" rx="22" fill="#F4C47C" opacity="0.65" />
    <rect x="82" y="300" width="156" height="18" rx="9" fill="#FDF8F4" opacity="0.4" />
    <rect x="110" y="330" width="100" height="16" rx="8" fill="#FDF8F4" opacity="0.4" />
  </g>
  <g transform="translate(390 420)">
    <rect width="380" height="360" rx="38" fill="url(#panelGradient3)" opacity="0.88" />
    <circle cx="100" cy="120" r="70" fill="#D47A2C" opacity="0.42" />
    <circle cx="220" cy="170" r="96" fill="#F4C47C" opacity="0.35" />
    <circle cx="280" cy="280" r="56" fill="#FDF8F4" opacity="0.28" />
    <rect x="60" y="200" width="260" height="120" rx="26" fill="#331910" />
    <rect x="120" y="232" width="140" height="24" rx="12" fill="#F4C47C" opacity="0.68" />
    <rect x="110" y="268" width="160" height="20" rx="10" fill="#FDF8F4" opacity="0.34" />
  </g>
  <g opacity="0.28">
    <circle cx="160" cy="160" r="34" fill="#F4C47C" />
    <circle cx="760" cy="140" r="22" fill="#D47A2C" />
    <circle cx="820" cy="240" r="32" fill="#F4C47C" />
    <circle cx="720" cy="760" r="28" fill="#D47A2C" />
    <circle cx="120" cy="720" r="20" fill="#F4C47C" />
  </g>
</svg>
