<svg width="360" height="360" viewBox="0 0 360 360" fill="none" xmlns="http://www.w3.org/2000/svg">
  <defs>
    <radialGradient id="marketGlow" cx="0" cy="0" r="1" gradientUnits="userSpaceOnUse" gradientTransform="translate(180 140) scale(220)">
      <stop offset="0" stop-color="#FFF7D6" />
      <stop offset="1" stop-color="#F4A261" />
    </radialGradient>
    <linearGradient id="stall" x1="80" y1="100" x2="280" y2="300" gradientUnits="userSpaceOnUse">
      <stop stop-color="#FFEDDB" />
      <stop offset="1" stop-color="#F6C7A5" />
    </linearGradient>
    <linearGradient id="awning" x1="80" y1="96" x2="280" y2="156" gradientUnits="userSpaceOnUse">
      <stop stop-color="#FF6B6B" />
      <stop offset="1" stop-color="#D62839" />
    </linearGradient>
    <linearGradient id="produce1" x1="120" y1="188" x2="188" y2="248" gradientUnits="userSpaceOnUse">
      <stop stop-color="#6CD872" />
      <stop offset="1" stop-color="#2D8A35" />
    </linearGradient>
    <linearGradient id="produce2" x1="188" y1="184" x2="256" y2="244" gradientUnits="userSpaceOnUse">
      <stop stop-color="#FFD86F" />
      <stop offset="1" stop-color="#FF9640" />
    </linearGradient>
    <filter id="marketShadow" x="44" y="52" width="272" height="276" filterUnits="userSpaceOnUse" color-interpolation-filters="sRGB">
      <feOffset dy="12" />
      <feGaussianBlur stdDeviation="16" />
      <feColorMatrix type="matrix" values="0 0 0 0 0.1 0 0 0 0 0.08 0 0 0 0 0.06 0 0 0 0.28 0" />
      <feBlend in="SourceGraphic" result="shape" />
    </filter>
  </defs>
  <rect width="360" height="360" rx="48" fill="#120806" />
  <circle cx="180" cy="150" r="160" fill="url(#marketGlow)" opacity="0.58" />
  <g filter="url(#marketShadow)">
    <rect x="80" y="104" width="200" height="200" rx="24" fill="url(#stall)" />
    <rect x="80" y="96" width="200" height="60" rx="20" fill="url(#awning)" />
    <path d="M84 140H276" stroke="#FFF1E3" stroke-width="6" stroke-linecap="round" />
    <path d="M108 220C108 196 132 176 164 176C196 176 220 196 220 220V256H108V220Z" fill="url(#produce1)" />
    <path d="M188 220C188 196 212 176 244 176C276 176 300 196 300 220V256H188V220Z" fill="url(#produce2)" transform="translate(-32,0)" />
    <path d="M92 264H268" stroke="#E5B28E" stroke-width="8" stroke-linecap="round" />
    <circle cx="140" cy="208" r="24" fill="#8CED91" />
    <circle cx="204" cy="208" r="20" fill="#FFE28C" />
    <circle cx="172" cy="234" r="18" fill="#FFD6A4" />
    <path d="M112 176L128 132H232L248 176" stroke="#FFF5EC" stroke-width="8" stroke-linecap="round" />
  </g>
  <g opacity="0.6">
    <circle cx="84" cy="96" r="10" fill="#FF8A6C" />
    <circle cx="276" cy="92" r="8" fill="#FFD6A3" />
    <path d="M72 304C86 282 112 268 140 268H220C248 268 274 282 288 304" stroke="#FFE7CB" stroke-width="10" stroke-linecap="round" />
  </g>
</svg>
