<svg width="960" height="900" viewBox="0 0 960 900" fill="none" xmlns="http://www.w3.org/2000/svg">
  <defs>
    <linearGradient id="marketBg" x1="0" y1="0" x2="0" y2="1">
      <stop offset="0" stop-color="#1F2C2F" />
      <stop offset="1" stop-color="#0D1415" />
    </linearGradient>
    <linearGradient id="stall" x1="0" y1="0" x2="1" y2="1">
      <stop offset="0" stop-color="#F4C47C" />
      <stop offset="1" stop-color="#D47A2C" />
    </linearGradient>
    <linearGradient id="awning" x1="0" y1="0" x2="1" y2="0">
      <stop offset="0" stop-color="#D65A3B" />
      <stop offset="1" stop-color="#A3341E" />
    </linearGradient>
    <linearGradient id="crate" x1="0" y1="1" x2="1" y2="0">
      <stop offset="0" stop-color="#5B2C1A" />
      <stop offset="1" stop-color="#2A140C" />
    </linearGradient>
  </defs>
  <rect width="960" height="900" rx="48" fill="url(#marketBg)" />
  <g opacity="0.36">
    <circle cx="160" cy="180" r="28" fill="#F4C47C" />
    <circle cx="780" cy="200" r="24" fill="#D47A2C" />
    <circle cx="840" cy="720" r="32" fill="#F4C47C" />
  </g>
  <rect x="120" y="160" width="720" height="520" rx="44" fill="#102022" />
  <rect x="160" y="200" width="640" height="440" rx="36" fill="#142A2E" />
  <rect x="180" y="220" width="600" height="140" rx="30" fill="url(#awning)" />
  <rect x="180" y="260" width="600" height="320" rx="34" fill="#0E1D1F" />
  <rect x="220" y="300" width="520" height="240" rx="32" fill="#142A2E" />
  <rect x="260" y="340" width="440" height="160" rx="28" fill="#0E1D1F" />
  <rect x="320" y="364" width="320" height="112" rx="24" fill="url(#stall)" />
  <circle cx="380" cy="380" r="22" fill="#FDF8F4" opacity="0.2" />
  <circle cx="580" cy="420" r="30" fill="#FDF8F4" opacity="0.18" />
  <rect x="340" y="496" width="280" height="24" rx="12" fill="#F4C47C" opacity="0.5" />
  <rect x="360" y="532" width="220" height="18" rx="9" fill="#FDF8F4" opacity="0.32" />
  <g transform="translate(200 540)">
    <rect width="200" height="160" rx="28" fill="url(#crate)" />
    <circle cx="60" cy="80" r="32" fill="#F4C47C" opacity="0.8" />
    <circle cx="130" cy="70" r="28" fill="#D47A2C" opacity="0.7" />
    <circle cx="150" cy="110" r="20" fill="#F4C47C" opacity="0.6" />
  </g>
  <g transform="translate(560 540)">
    <rect width="200" height="160" rx="28" fill="url(#crate)" />
    <circle cx="70" cy="80" r="30" fill="#F4C47C" opacity="0.8" />
    <circle cx="122" cy="66" r="26" fill="#D47A2C" opacity="0.7" />
    <circle cx="138" cy="116" r="22" fill="#F4C47C" opacity="0.6" />
  </g>
</svg>
