<svg width="360" height="360" viewBox="0 0 360 360" fill="none" xmlns="http://www.w3.org/2000/svg">
  <defs>
    <linearGradient id="glass" x1="0" y1="0" x2="0" y2="1">
      <stop offset="0" stop-color="#F4C47C" />
      <stop offset="1" stop-color="#D47A2C" />
    </linearGradient>
    <linearGradient id="background" x1="0" y1="0" x2="1" y2="1">
      <stop offset="0" stop-color="#214950" />
      <stop offset="1" stop-color="#133840" />
    </linearGradient>
  </defs>
  <rect width="360" height="360" rx="48" fill="#120908" />
  <rect x="52" y="60" width="256" height="240" rx="42" fill="url(#background)" />
  <path d="M120 120H240L220 200C214 222 194 236 172 236H188C166 236 146 222 140 200L120 120Z" fill="#0B161B" />
  <path d="M132 132H228L212 192C208 206 194 216 180 216C166 216 152 206 148 192L132 132Z" fill="url(#glass)" opacity="0.92" />
  <circle cx="180" cy="116" r="22" fill="#F4C47C" />
  <rect x="174" y="80" width="12" height="52" rx="6" fill="#FDECD6" />
  <rect x="160" y="220" width="40" height="60" rx="12" fill="#2A140C" />
  <rect x="168" y="232" width="24" height="32" rx="12" fill="#F4C47C" opacity="0.6" />
  <circle cx="132" cy="180" r="12" fill="#FDECD6" opacity="0.4" />
  <circle cx="228" cy="180" r="12" fill="#FDECD6" opacity="0.4" />
  <path d="M120 260H240" stroke="#FDECD6" stroke-opacity="0.25" stroke-width="10" stroke-linecap="round" />
</svg>
