<svg width="360" height="360" viewBox="0 0 360 360" fill="none" xmlns="http://www.w3.org/2000/svg">
  <defs>
    <linearGradient id="walls" x1="0" y1="0" x2="1" y2="1">
      <stop offset="0" stop-color="#214950" />
      <stop offset="1" stop-color="#133840" />
    </linearGradient>
    <linearGradient id="glow" x1="0" y1="0" x2="0" y2="1">
      <stop offset="0" stop-color="#F4C47C" />
      <stop offset="1" stop-color="#D47A2C" />
    </linearGradient>
  </defs>
  <rect width="360" height="360" rx="48" fill="#100A0A" />
  <rect x="40" y="60" width="280" height="220" rx="36" fill="url(#walls)" />
  <rect x="72" y="96" width="216" height="148" rx="28" fill="#0F2026" />
  <rect x="92" y="116" width="176" height="108" rx="22" fill="#0B161B" />
  <g opacity="0.7">
    <circle cx="132" cy="160" r="44" fill="#F4C47C" />
    <circle cx="228" cy="160" r="44" fill="#D47A2C" />
    <rect x="132" y="120" width="96" height="16" rx="8" fill="#FDECD6" opacity="0.3" />
    <rect x="124" y="198" width="112" height="18" rx="9" fill="#FDECD6" opacity="0.25" />
  </g>
  <rect x="132" y="242" width="96" height="40" rx="20" fill="#2A140C" opacity="0.8" />
  <rect x="152" y="252" width="56" height="20" rx="10" fill="#F4C47C" opacity="0.7" />
  <circle cx="180" cy="70" r="34" fill="url(#glow)" opacity="0.8" />
  <path d="M108 302H252" stroke="#F4C47C" stroke-opacity="0.3" stroke-width="8" stroke-linecap="round" />
</svg>
