<svg width="360" height="360" viewBox="0 0 360 360" fill="none" xmlns="http://www.w3.org/2000/svg">
  <defs>
    <radialGradient id="eveningGlow" cx="0" cy="0" r="1" gradientUnits="userSpaceOnUse" gradientTransform="translate(180 140) scale(220)">
      <stop offset="0" stop-color="#FFE6C7" />
      <stop offset="1" stop-color="#6A301A" />
    </radialGradient>
    <radialGradient id="boardLight" cx="0" cy="0" r="1" gradientUnits="userSpaceOnUse" gradientTransform="translate(186 190) rotate(12) scale(162 148)">
      <stop offset="0" stop-color="#E4B884" />
      <stop offset="0.45" stop-color="#C78548" />
      <stop offset="1" stop-color="#6F3916" />
    </radialGradient>
    <linearGradient id="boardGrain" x1="96" y1="108" x2="284" y2="284" gradientUnits="userSpaceOnUse">
      <stop offset="0" stop-color="#753B1B" stop-opacity="0.24" />
      <stop offset="1" stop-color="#33170A" stop-opacity="0.6" />
    </linearGradient>
    <radialGradient id="brieWheel" cx="0" cy="0" r="1" gradientUnits="userSpaceOnUse" gradientTransform="translate(140 194) scale(62)">
      <stop offset="0" stop-color="#FFF6EC" />
      <stop offset="0.6" stop-color="#F7EEE3" />
      <stop offset="1" stop-color="#E5D7C7" />
    </radialGradient>
    <radialGradient id="brieCut" cx="0" cy="0" r="1" gradientUnits="userSpaceOnUse" gradientTransform="translate(166 204) rotate(18) scale(40 42)">
      <stop offset="0" stop-color="#FFEED9" />
      <stop offset="0.7" stop-color="#F8D59F" />
      <stop offset="1" stop-color="#D99858" />
    </radialGradient>
    <radialGradient id="grapeCluster" cx="0" cy="0" r="1" gradientUnits="userSpaceOnUse" gradientTransform="translate(224 146) rotate(18) scale(64)">
      <stop offset="0" stop-color="#642A58" />
      <stop offset="0.45" stop-color="#8D2B68" />
      <stop offset="1" stop-color="#34092A" />
    </radialGradient>
    <radialGradient id="grapeHighlight" cx="0" cy="0" r="1" gradientUnits="userSpaceOnUse" gradientTransform="translate(214 130) rotate(30) scale(22)">
      <stop offset="0" stop-color="#E7A4EA" stop-opacity="0.9" />
      <stop offset="1" stop-color="#8B2A7B" stop-opacity="0" />
    </radialGradient>
    <radialGradient id="fig" cx="0" cy="0" r="1" gradientUnits="userSpaceOnUse" gradientTransform="translate(238 220) rotate(12) scale(44 40)">
      <stop offset="0" stop-color="#FBE3C2" />
      <stop offset="0.45" stop-color="#F79D86" />
      <stop offset="1" stop-color="#6B1F2F" />
    </radialGradient>
    <linearGradient id="prosciuttoFold" x1="94" y1="250" x2="210" y2="310" gradientUnits="userSpaceOnUse">
      <stop offset="0" stop-color="#F9A49A" />
      <stop offset="0.4" stop-color="#E37770" />
      <stop offset="1" stop-color="#A43A3A" />
    </linearGradient>
    <radialGradient id="olive" cx="0" cy="0" r="1" gradientUnits="userSpaceOnUse" gradientTransform="translate(198 260) scale(20 18)">
      <stop offset="0" stop-color="#E0F0C2" />
      <stop offset="0.5" stop-color="#8AA038" />
      <stop offset="1" stop-color="#353A16" />
    </radialGradient>
    <filter id="boardShadow" x="32" y="68" width="296" height="268" filterUnits="userSpaceOnUse" color-interpolation-filters="sRGB">
      <feGaussianBlur stdDeviation="16" result="blur" />
      <feOffset dy="18" in="blur" result="offset" />
      <feColorMatrix in="offset" type="matrix" values="0 0 0 0 0 0 0 0 0 0 0 0 0 0 0 0 0 0 0.35 0" />
    </filter>
    <filter id="dishShine" x="84" y="132" width="144" height="124" filterUnits="userSpaceOnUse" color-interpolation-filters="sRGB">
      <feGaussianBlur stdDeviation="12" result="blur" />
      <feComponentTransfer in="blur">
        <feFuncA type="linear" slope="0.45" />
      </feComponentTransfer>
    </filter>
  </defs>
  <rect width="360" height="360" rx="48" fill="#130807" />
  <circle cx="180" cy="132" r="176" fill="url(#eveningGlow)" opacity="0.55" />
  <g filter="url(#boardShadow)" opacity="0.94">
    <ellipse cx="188" cy="190" rx="144" ry="128" fill="url(#boardLight)" />
    <ellipse cx="188" cy="190" rx="144" ry="128" fill="url(#boardGrain)" opacity="0.55" />
    <path d="M260 84C256 74 242 68 226 70C212 72 204 82 206 94C208 104 216 112 228 114L260 118C272 120 280 108 276 96L260 84Z" fill="#5F3118" opacity="0.85" />
    <path d="M118 276C130 298 156 308 182 304C208 300 234 284 246 262C254 248 240 232 224 236L150 252C134 256 112 262 118 276Z" fill="#4E2512" opacity="0.6" />
  </g>
  <g>
    <circle cx="140" cy="194" r="60" fill="url(#brieWheel)" />
    <path d="M140 136C152 144 170 160 176 186C180 204 174 226 160 246C184 242 210 214 210 188C210 152 166 130 140 136Z" fill="url(#brieCut)" />
    <path d="M132 146C146 140 164 142 176 154" stroke="#FFF9F0" stroke-width="6" stroke-linecap="round" opacity="0.6" />
    <path d="M104 184C100 204 112 226 132 236" stroke="#D6C3AD" stroke-width="6" stroke-linecap="round" opacity="0.5" />
    <path d="M140 134C118 138 94 170 96 202C98 226 120 246 146 246" stroke="#C9B095" stroke-width="5" stroke-linecap="round" opacity="0.35" />
  </g>
  <g>
    <ellipse cx="224" cy="152" rx="64" ry="54" fill="url(#grapeCluster)" />
    <ellipse cx="210" cy="132" rx="24" ry="22" fill="#522353" />
    <ellipse cx="244" cy="142" rx="26" ry="24" fill="#58255C" />
    <ellipse cx="220" cy="174" rx="24" ry="22" fill="#4C214D" />
    <ellipse cx="250" cy="168" rx="20" ry="18" fill="#541E50" />
    <ellipse cx="228" cy="156" rx="30" ry="28" fill="#62265C" />
    <ellipse cx="214" cy="134" rx="20" ry="18" fill="#7A387D" opacity="0.6" />
    <ellipse cx="232" cy="120" rx="24" ry="22" fill="#772C75" opacity="0.7" />
    <path d="M230 116C240 110 254 108 266 110" stroke="#355B24" stroke-width="8" stroke-linecap="round" />
    <circle cx="230" cy="130" r="22" fill="url(#grapeHighlight)" />
  </g>
  <g>
    <path d="M188 232C214 214 262 212 284 232C300 246 300 270 284 286C264 306 214 310 186 288C170 276 170 246 188 232Z" fill="url(#prosciuttoFold)" />
    <path d="M188 232C194 236 200 242 204 252C210 266 204 282 192 292" stroke="#F7C1BC" stroke-width="6" stroke-linecap="round" opacity="0.5" />
    <path d="M212 224C240 220 270 228 282 248" stroke="#FBD1CC" stroke-width="6" stroke-linecap="round" opacity="0.45" />
    <path d="M174 244C198 248 212 258 222 276" stroke="#C35A54" stroke-width="8" stroke-linecap="round" opacity="0.5" />
  </g>
  <g>
    <ellipse cx="236" cy="226" rx="40" ry="32" fill="url(#fig)" />
    <ellipse cx="238" cy="222" rx="24" ry="18" fill="#FEEACD" opacity="0.8" />
    <path d="M244 196C262 208 270 232 262 252" stroke="#7C2737" stroke-width="6" stroke-linecap="round" />
    <path d="M224 208C216 220 218 240 228 252" stroke="#4A0F1F" stroke-width="6" stroke-linecap="round" opacity="0.45" />
  </g>
  <g>
    <ellipse cx="202" cy="266" rx="24" ry="20" fill="url(#olive)" />
    <ellipse cx="210" cy="260" rx="10" ry="8" fill="#DDE8A5" opacity="0.7" />
    <path d="M188 266C188 256 198 246 210 244" stroke="#24270F" stroke-width="6" stroke-linecap="round" opacity="0.4" />
    <path d="M200 282C216 284 232 274 238 260" stroke="#3E4A1A" stroke-width="6" stroke-linecap="round" opacity="0.35" />
  </g>
  <g filter="url(#dishShine)">
    <path d="M98 194C102 160 134 136 168 140" fill="#FFFFFF" opacity="0.18" />
  </g>
  <g opacity="0.65">
    <path d="M104 104C124 78 160 64 198 66" stroke="#3E1D10" stroke-width="12" stroke-linecap="round" />
    <path d="M280 312C254 330 214 340 176 334" stroke="#431F0E" stroke-width="10" stroke-linecap="round" />
    <circle cx="108" cy="118" r="12" fill="#FFD9A6" />
    <circle cx="280" cy="300" r="10" fill="#F2A17B" />
  </g>
</svg>
