<svg width="360" height="360" viewBox="0 0 360 360" fill="none" xmlns="http://www.w3.org/2000/svg">
  <defs>
    <radialGradient id="barGlow" cx="0" cy="0" r="1" gradientUnits="userSpaceOnUse" gradientTransform="translate(180 120) scale(220)">
      <stop offset="0" stop-color="#FFD7F1" />
      <stop offset="1" stop-color="#8C1E7A" />
    </radialGradient>
    <linearGradient id="glassStem" x1="172" y1="180" x2="188" y2="312" gradientUnits="userSpaceOnUse">
      <stop stop-color="#F4F8FF" />
      <stop offset="1" stop-color="#A6C9FF" />
    </linearGradient>
    <linearGradient id="cocktailFill" x1="120" y1="120" x2="240" y2="220" gradientUnits="userSpaceOnUse">
      <stop stop-color="#FFB7D1" />
      <stop offset="1" stop-color="#FF6F91" />
    </linearGradient>
    <linearGradient id="citrus" x1="248" y1="68" x2="300" y2="132" gradientUnits="userSpaceOnUse">
      <stop stop-color="#FFE382" />
      <stop offset="1" stop-color="#FFAB2D" />
    </linearGradient>
    <filter id="glassShadow" x="64" y="44" width="232" height="292" filterUnits="userSpaceOnUse" color-interpolation-filters="sRGB">
      <feOffset dy="12" />
      <feGaussianBlur stdDeviation="18" />
      <feColorMatrix type="matrix" values="0 0 0 0 0.1 0 0 0 0 0.05 0 0 0 0 0.2 0 0 0 0.25 0" />
      <feBlend in="SourceGraphic" result="shape" />
    </filter>
  </defs>
  <rect width="360" height="360" rx="48" fill="#12041B" />
  <circle cx="180" cy="150" r="160" fill="url(#barGlow)" opacity="0.7" />
  <g filter="url(#glassShadow)">
    <path d="M108 112H252L214 184C204.544 202.8 186.72 214 167.2 214H156.8C137.28 214 119.456 202.8 110 184L108 112Z" fill="url(#cocktailFill)" stroke="#FDE8F3" stroke-width="6" />
    <path d="M156 214H204V228C204 242.912 216.088 255 231 255H240V268H120V255H129C143.912 255 156 242.912 156 228V214Z" fill="url(#glassStem)" />
    <ellipse cx="180" cy="276" rx="76" ry="20" fill="#0C0715" opacity="0.6" />
    <path d="M144 110C144 96 158 86 174 86H186C202 86 216 96 216 110H144Z" fill="#FDE8F3" opacity="0.8" />
  </g>
  <path d="M264 82C292 92 310 122 298 144C284 170 238 166 224 140C212 116 236 72 264 82Z" fill="url(#citrus)" />
  <circle cx="280" cy="84" r="10" fill="#FFF5CC" />
  <path d="M220 118C214 110 210 100 210 90C210 70 226 54 246 54C256 54 264 58 272 64" stroke="#FEE7F0" stroke-width="6" stroke-linecap="round" />
  <g opacity="0.8">
    <circle cx="108" cy="74" r="8" fill="#FF8BA7" />
    <circle cx="132" cy="64" r="6" fill="#FFAAC5" />
    <circle cx="154" cy="78" r="10" fill="#FFD6E7" />
    <path d="M86 300C92 286 114 276 138 276H222C246 276 268 286 274 300" stroke="#311239" stroke-width="8" stroke-linecap="round" opacity="0.4" />
  </g>
</svg>
