<svg width="1600" height="1000" viewBox="0 0 1600 1000" fill="none" xmlns="http://www.w3.org/2000/svg">
  <defs>
    <linearGradient id="bgGradient" x1="0" y1="0" x2="0" y2="1">
      <stop offset="0%" stop-color="#2C1A11" />
      <stop offset="100%" stop-color="#120908" />
    </linearGradient>
    <radialGradient id="sunset" cx="0" cy="0" r="1" gradientUnits="userSpaceOnUse" gradientTransform="translate(1200 150) rotate(125) scale(720 520)">
      <stop stop-color="#F4C47C" stop-opacity="0.82" />
      <stop offset="0.45" stop-color="#D47A2C" stop-opacity="0.68" />
      <stop offset="1" stop-color="#2C1A11" stop-opacity="0" />
    </radialGradient>
    <linearGradient id="wave" x1="0" y1="0" x2="1" y2="0">
      <stop stop-color="#204E55" stop-opacity="0.7" />
      <stop offset="1" stop-color="#133840" stop-opacity="0.4" />
    </linearGradient>
    <linearGradient id="tableGlow" x1="0" y1="0" x2="1" y2="1">
      <stop stop-color="#5E2F1C" stop-opacity="0.8" />
      <stop offset="1" stop-color="#28140C" stop-opacity="0.95" />
    </linearGradient>
    <filter id="softBlur" x="-20%" y="-20%" width="140%" height="140%" filterUnits="objectBoundingBox">
      <feGaussianBlur stdDeviation="40" result="blur" />
    </filter>
  </defs>
  <rect width="1600" height="1000" fill="url(#bgGradient)" />
  <ellipse cx="1300" cy="150" rx="650" ry="420" fill="url(#sunset)" />
  <path d="M0 620C120 560 260 540 400 560C580 590 760 670 940 670C1120 670 1280 600 1440 560C1500 540 1560 530 1600 528V1000H0V620Z" fill="url(#wave)" />
  <g filter="url(#softBlur)">
    <ellipse cx="360" cy="760" rx="260" ry="140" fill="#D47A2C" fill-opacity="0.26" />
    <ellipse cx="1080" cy="820" rx="320" ry="160" fill="#F4C47C" fill-opacity="0.18" />
  </g>
  <g opacity="0.85">
    <path d="M260 740C260 678 314 628 382 628H602C670 628 724 678 724 740C724 798 676 840 612 848C568 854 516 856 492 856C468 856 416 854 372 848C308 840 260 798 260 740Z" fill="url(#tableGlow)" />
    <path d="M520 540C544 512 588 512 612 540L672 608C698 636 678 678 640 678H492C454 678 434 636 460 608L520 540Z" fill="#2F1911" />
    <path d="M352 540C376 512 420 512 444 540L504 608C530 636 510 678 472 678H324C286 678 266 636 292 608L352 540Z" fill="#331B12" />
    <circle cx="420" cy="696" r="40" fill="#F4C47C" fill-opacity="0.75" />
    <circle cx="556" cy="696" r="42" fill="#D47A2C" fill-opacity="0.8" />
  </g>
  <g opacity="0.75">
    <path d="M1100 640C1100 598 1134 564 1176 564H1346C1388 564 1422 598 1422 640C1422 680 1396 710 1356 716C1328 720 1288 722 1262 722C1236 722 1196 720 1168 716C1128 710 1100 680 1100 640Z" fill="#2E1710" />
    <path d="M1226 506C1242 486 1274 486 1290 506L1346 570C1364 592 1348 626 1320 626H1196C1168 626 1152 592 1170 570L1226 506Z" fill="#3D2116" />
    <circle cx="1206" cy="660" r="32" fill="#F4C47C" fill-opacity="0.68" />
    <circle cx="1308" cy="660" r="36" fill="#D47A2C" fill-opacity="0.7" />
  </g>
  <g opacity="0.32">
    <path d="M0 382C150 330 320 310 480 326C650 344 820 398 990 414C1130 428 1400 414 1600 378V210C1440 240 1260 248 1100 222C940 198 740 130 560 126C400 122 220 170 0 226V382Z" fill="#4C2618" />
  </g>
  <g opacity="0.4">
    <circle cx="200" cy="180" r="36" fill="#F4C47C" fill-opacity="0.4" />
    <circle cx="310" cy="280" r="22" fill="#D47A2C" fill-opacity="0.45" />
    <circle cx="250" cy="360" r="28" fill="#F4C47C" fill-opacity="0.3" />
  </g>
</svg>
