<svg width="360" height="360" viewBox="0 0 360 360" fill="none" xmlns="http://www.w3.org/2000/svg">
  <defs>
    <radialGradient id="diningGlow" cx="0" cy="0" r="1" gradientUnits="userSpaceOnUse" gradientTransform="translate(180 120) scale(220)">
      <stop offset="0" stop-color="#FFF4D9" />
      <stop offset="1" stop-color="#E3923E" />
    </radialGradient>
    <linearGradient id="tablecloth" x1="72" y1="220" x2="288" y2="312" gradientUnits="userSpaceOnUse">
      <stop stop-color="#E23E4E" />
      <stop offset="1" stop-color="#9C1236" />
    </linearGradient>
    <linearGradient id="plate" x1="120" y1="100" x2="240" y2="260" gradientUnits="userSpaceOnUse">
      <stop stop-color="#FFFFFF" />
      <stop offset="1" stop-color="#D9E4FF" />
    </linearGradient>
    <linearGradient id="steak" x1="152" y1="152" x2="232" y2="228" gradientUnits="userSpaceOnUse">
      <stop stop-color="#712515" />
      <stop offset="1" stop-color="#A63B1E" />
    </linearGradient>
    <linearGradient id="veggies" x1="120" y1="180" x2="220" y2="260" gradientUnits="userSpaceOnUse">
      <stop stop-color="#75D27D" />
      <stop offset="1" stop-color="#2F8F3B" />
    </linearGradient>
    <filter id="softShadow" x="44" y="48" width="272" height="272" filterUnits="userSpaceOnUse" color-interpolation-filters="sRGB">
      <feOffset dy="12" />
      <feGaussianBlur stdDeviation="14" />
      <feColorMatrix type="matrix" values="0 0 0 0 0.1 0 0 0 0 0.07 0 0 0 0 0.05 0 0 0 0.25 0" />
      <feBlend in="SourceGraphic" result="shape" />
    </filter>
  </defs>
  <rect width="360" height="360" rx="48" fill="#1A0F05" />
  <circle cx="180" cy="150" r="160" fill="url(#diningGlow)" opacity="0.65" />
  <g filter="url(#softShadow)">
    <path d="M60 240H300L276 300H84L60 240Z" fill="url(#tablecloth)" />
    <ellipse cx="180" cy="198" rx="124" ry="74" fill="#3B1B0C" opacity="0.5" />
    <ellipse cx="180" cy="188" rx="108" ry="64" fill="url(#plate)" />
    <ellipse cx="180" cy="188" rx="84" ry="48" fill="#F8FAFF" />
    <path d="M142 180C134 204 154 228 184 232C214 236 246 220 250 196C254 172 228 148 198 150C172 152 150 156 142 180Z" fill="url(#steak)" />
    <path d="M112 186C102 204 116 228 140 238C164 248 200 248 220 236C242 222 232 194 208 190C176 186 124 160 112 186Z" fill="url(#veggies)" />
    <path d="M148 164C150 156 164 150 182 150C204 150 220 158 220 168C220 178 198 182 182 180C166 178 146 176 148 164Z" fill="#F6C86A" opacity="0.8" />
    <circle cx="124" cy="142" r="26" fill="#F8EDE1" />
    <circle cx="236" cy="144" r="24" fill="#F8EDE1" />
    <circle cx="124" cy="142" r="12" fill="#EBD0BE" />
    <circle cx="236" cy="144" r="10" fill="#EBD0BE" />
  </g>
  <path d="M92 96L88 76C86 66 92 56 102 54L136 48" stroke="#F8D7B5" stroke-width="6" stroke-linecap="round" />
  <path d="M268 96L272 76C274 66 268 56 258 54L224 48" stroke="#F8D7B5" stroke-width="6" stroke-linecap="round" />
  <g opacity="0.7">
    <path d="M60 320C70 296 100 280 134 280H226C260 280 290 296 300 320" stroke="#F8E4D2" stroke-width="10" stroke-linecap="round" />
    <circle cx="84" cy="248" r="10" fill="#FFD7A6" />
    <circle cx="276" cy="248" r="10" fill="#FFD7A6" />
  </g>
</svg>
