<svg width="360" height="360" viewBox="0 0 360 360" fill="none" xmlns="http://www.w3.org/2000/svg">
  <defs>
    <linearGradient id="background" x1="60" y1="60" x2="300" y2="300" gradientUnits="userSpaceOnUse">
      <stop stop-color="#1B0E23" />
      <stop offset="1" stop-color="#050308" />
    </linearGradient>
    <linearGradient id="card1" x1="64" y1="84" x2="176" y2="216" gradientUnits="userSpaceOnUse">
      <stop stop-color="#FFEEDA" />
      <stop offset="1" stop-color="#FFD2A1" />
    </linearGradient>
    <linearGradient id="card2" x1="184" y1="64" x2="312" y2="196" gradientUnits="userSpaceOnUse">
      <stop stop-color="#FFF7FC" />
      <stop offset="1" stop-color="#FBD2E9" />
    </linearGradient>
    <linearGradient id="card3" x1="120" y1="200" x2="280" y2="320" gradientUnits="userSpaceOnUse">
      <stop stop-color="#E7FFF4" />
      <stop offset="1" stop-color="#B5F4D7" />
    </linearGradient>
    <linearGradient id="dish1" x1="84" y1="120" x2="160" y2="208" gradientUnits="userSpaceOnUse">
      <stop stop-color="#F97F60" />
      <stop offset="1" stop-color="#D63B23" />
    </linearGradient>
    <linearGradient id="dish2" x1="212" y1="116" x2="276" y2="184" gradientUnits="userSpaceOnUse">
      <stop stop-color="#FFDC7C" />
      <stop offset="1" stop-color="#FFA41A" />
    </linearGradient>
    <linearGradient id="dish3" x1="168" y1="244" x2="260" y2="312" gradientUnits="userSpaceOnUse">
      <stop stop-color="#6FD48C" />
      <stop offset="1" stop-color="#2E9B5E" />
    </linearGradient>
    <filter id="cardShadow" x="36" y="44" width="288" height="292" filterUnits="userSpaceOnUse" color-interpolation-filters="sRGB">
      <feOffset dy="14" />
      <feGaussianBlur stdDeviation="18" />
      <feColorMatrix type="matrix" values="0 0 0 0 0.08 0 0 0 0 0.05 0 0 0 0 0.18 0 0 0 0.25 0" />
      <feBlend in="SourceGraphic" result="shape" />
    </filter>
  </defs>
  <rect width="360" height="360" rx="48" fill="url(#background)" />
  <g filter="url(#cardShadow)">
    <rect x="64" y="92" width="132" height="168" rx="24" fill="url(#card1)" />
    <rect x="188" y="72" width="132" height="168" rx="24" fill="url(#card2)" />
    <rect x="120" y="208" width="192" height="132" rx="28" fill="url(#card3)" />
    <circle cx="130" cy="148" r="42" fill="#FFE9D2" />
    <circle cx="130" cy="148" r="34" fill="url(#dish1)" />
    <path d="M100 168C110 154 124 150 138 152C156 154 172 168 170 186C166 210 132 212 112 198C104 192 96 184 100 168Z" fill="#FFD3AA" />
    <circle cx="254" cy="140" r="38" fill="#FFF1F9" />
    <circle cx="254" cy="140" r="30" fill="url(#dish2)" />
    <path d="M232 120C248 112 272 118 280 134C286 148 280 166 264 174C240 188 210 168 220 144C224 134 222 126 232 120Z" fill="#FFEDC8" />
    <circle cx="220" cy="272" r="52" fill="#E6FFF3" />
    <circle cx="220" cy="272" r="44" fill="url(#dish3)" />
    <path d="M188 260C180 280 196 306 222 310C254 316 280 288 270 262C262 240 198 234 188 260Z" fill="#F3FFD5" />
    <path d="M156 236L136 212" stroke="#FF9A6C" stroke-width="10" stroke-linecap="round" />
    <path d="M312 192L292 172" stroke="#FF9A6C" stroke-width="10" stroke-linecap="round" />
    <path d="M164 320H276" stroke="#5BBE87" stroke-width="12" stroke-linecap="round" opacity="0.4" />
  </g>
  <g opacity="0.65">
    <circle cx="84" cy="84" r="12" fill="#FF8C9F" />
    <circle cx="300" cy="96" r="8" fill="#FFE0F5" />
    <path d="M72 296C86 276 116 260 152 260" stroke="#FFBEB7" stroke-width="10" stroke-linecap="round" />
    <path d="M288 72C300 82 308 98 306 114" stroke="#FFE7FB" stroke-width="8" stroke-linecap="round" />
  </g>
</svg>
