<svg width="360" height="360" viewBox="0 0 360 360" fill="none" xmlns="http://www.w3.org/2000/svg">
  <defs>
    <radialGradient id="menuAura" cx="0" cy="0" r="1" gradientUnits="userSpaceOnUse" gradientTransform="translate(180 124) scale(220)">
      <stop offset="0" stop-color="#FFEFD8" />
      <stop offset="1" stop-color="#3E1C0F" />
    </radialGradient>
    <linearGradient id="menuCard" x1="84" y1="104" x2="276" y2="312" gradientUnits="userSpaceOnUse">
      <stop offset="0" stop-color="#FFFFFF" />
      <stop offset="0.65" stop-color="#F4E7D8" />
      <stop offset="1" stop-color="#E2CFB7" />
    </linearGradient>
    <radialGradient id="plateShadow" cx="0" cy="0" r="1" gradientUnits="userSpaceOnUse" gradientTransform="translate(180 234) scale(88)">
      <stop offset="0" stop-color="#ECE3D6" />
      <stop offset="0.65" stop-color="#D6CCBC" />
      <stop offset="1" stop-color="#C0B3A0" />
    </radialGradient>
    <radialGradient id="steakSurface" cx="0" cy="0" r="1" gradientUnits="userSpaceOnUse" gradientTransform="translate(180 240) rotate(10) scale(68 52)">
      <stop offset="0" stop-color="#804231" />
      <stop offset="0.4" stop-color="#5B2318" />
      <stop offset="1" stop-color="#2E130D" />
    </radialGradient>
    <radialGradient id="steakHighlight" cx="0" cy="0" r="1" gradientUnits="userSpaceOnUse" gradientTransform="translate(186 226) rotate(20) scale(40)">
      <stop offset="0" stop-color="#D9856D" stop-opacity="0.8" />
      <stop offset="1" stop-color="#5E2517" stop-opacity="0" />
    </radialGradient>
    <radialGradient id="purree" cx="0" cy="0" r="1" gradientUnits="userSpaceOnUse" gradientTransform="translate(152 246) rotate(18) scale(52 38)">
      <stop offset="0" stop-color="#FFF7D6" />
      <stop offset="0.5" stop-color="#F3D991" />
      <stop offset="1" stop-color="#CE9A32" />
    </radialGradient>
    <radialGradient id="greens" cx="0" cy="0" r="1" gradientUnits="userSpaceOnUse" gradientTransform="translate(216 226) rotate(22) scale(46)">
      <stop offset="0" stop-color="#BAF2A4" />
      <stop offset="0.55" stop-color="#51AE58" />
      <stop offset="1" stop-color="#246132" />
    </radialGradient>
    <radialGradient id="sauce" cx="0" cy="0" r="1" gradientUnits="userSpaceOnUse" gradientTransform="translate(192 274) rotate(12) scale(58 28)">
      <stop offset="0" stop-color="#F8CCB6" />
      <stop offset="0.5" stop-color="#E78B64" />
      <stop offset="1" stop-color="#8A391F" />
    </radialGradient>
    <filter id="cardShadow" x="44" y="64" width="272" height="280" filterUnits="userSpaceOnUse" color-interpolation-filters="sRGB">
      <feGaussianBlur stdDeviation="16" result="blur" />
      <feOffset dy="18" in="blur" result="offset" />
      <feColorMatrix in="offset" type="matrix" values="0 0 0 0 0.08 0 0 0 0 0.06 0 0 0 0 0.14 0 0 0 0.28 0" />
    </filter>
    <filter id="shine" x="120" y="156" width="96" height="120" filterUnits="userSpaceOnUse" color-interpolation-filters="sRGB">
      <feGaussianBlur stdDeviation="18" result="blur" />
      <feComponentTransfer in="blur">
        <feFuncA type="linear" slope="0.45" />
      </feComponentTransfer>
    </filter>
  </defs>
  <rect width="360" height="360" rx="48" fill="#120806" />
  <circle cx="180" cy="124" r="176" fill="url(#menuAura)" opacity="0.55" />
  <g filter="url(#cardShadow)">
    <rect x="84" y="96" width="192" height="240" rx="32" fill="url(#menuCard)" />
    <rect x="112" y="128" width="136" height="44" rx="14" fill="#FFF7EB" />
    <rect x="128" y="138" width="78" height="24" rx="12" fill="#F07C4A" />
    <circle cx="180" cy="236" r="84" fill="#FDF8F1" />
    <circle cx="180" cy="236" r="72" fill="url(#plateShadow)" />
    <path d="M136 238C120 228 116 208 126 194C140 172 178 166 210 174C240 182 254 206 238 228C226 244 198 244 176 250C154 256 148 250 136 238Z" fill="url(#steakSurface)" />
    <path d="M130 210C134 194 154 182 182 182C214 182 238 196 244 214" stroke="#471A12" stroke-width="10" stroke-linecap="round" opacity="0.45" />
    <path d="M150 252C174 252 206 246 228 230" stroke="#9F5840" stroke-width="8" stroke-linecap="round" opacity="0.5" />
    <path d="M134 226C134 208 160 198 188 204C214 210 234 226 230 244" stroke="#C97B59" stroke-width="8" stroke-linecap="round" opacity="0.4" />
    <ellipse cx="150" cy="248" rx="46" ry="32" fill="url(#purree)" />
    <ellipse cx="218" cy="226" rx="40" ry="34" fill="url(#greens)" />
    <path d="M232 208C244 218 246 236 236 248" stroke="#1B4A28" stroke-width="6" stroke-linecap="round" opacity="0.45" />
    <path d="M212 210C206 226 210 246 224 256" stroke="#7ED481" stroke-width="6" stroke-linecap="round" opacity="0.45" />
    <path d="M194 266C212 262 238 264 252 280C266 296 252 316 224 318C198 320 164 310 156 292C150 278 172 270 194 266Z" fill="url(#sauce)" />
    <path d="M174 214C184 206 198 204 210 206" stroke="#F3AA8D" stroke-width="6" stroke-linecap="round" opacity="0.5" />
    <circle cx="210" cy="206" r="8" fill="#FFE2D2" opacity="0.5" />
    <circle cx="146" cy="230" r="6" fill="#FFECD4" />
    <circle cx="208" cy="250" r="6" fill="#FDEACC" />
    <circle cx="232" cy="236" r="6" fill="#E8F8D8" />
    <path d="M128 292H232" stroke="#D1BA9D" stroke-width="8" stroke-linecap="round" opacity="0.4" />
    <path d="M120 180H244" stroke="#E5D0B8" stroke-width="6" stroke-linecap="round" opacity="0.6" />
    <circle cx="216" cy="140" r="12" fill="#FFC49E" />
  </g>
  <g filter="url(#shine)">
    <path d="M144 204C144 182 166 162 192 160" fill="#FFFFFF" opacity="0.2" />
  </g>
  <g opacity="0.6">
    <circle cx="82" cy="104" r="12" fill="#FF9E6E" />
    <circle cx="282" cy="86" r="8" fill="#FFD7B0" />
    <path d="M84 312C100 288 128 272 158 272H214C244 272 272 288 288 312" stroke="#FFE8D2" stroke-width="10" stroke-linecap="round" />
  </g>
</svg>
