<svg width="1200" height="900" viewBox="0 0 1200 900" fill="none" xmlns="http://www.w3.org/2000/svg">
  <defs>
    <linearGradient id="plateGradient" x1="0" y1="0" x2="1" y2="1">
      <stop offset="0" stop-color="#F8E5CF" />
      <stop offset="1" stop-color="#F4C47C" />
    </linearGradient>
    <radialGradient id="oliveGradient" cx="0" cy="0" r="1" gradientUnits="userSpaceOnUse" gradientTransform="translate(180 160) scale(140)">
      <stop offset="0" stop-color="#214950" />
      <stop offset="1" stop-color="#152F36" />
    </radialGradient>
    <linearGradient id="paellaGradient" x1="0" y1="1" x2="1" y2="0">
      <stop offset="0" stop-color="#D47A2C" />
      <stop offset="1" stop-color="#F4C47C" />
    </linearGradient>
    <linearGradient id="dessertGradient" x1="0" y1="0" x2="1" y2="1">
      <stop offset="0" stop-color="#5B2C1A" />
      <stop offset="1" stop-color="#2A140C" />
    </linearGradient>
  </defs>
  <rect width="1200" height="900" rx="60" fill="#120908" />
  <g opacity="0.35">
    <circle cx="200" cy="140" r="38" fill="#F4C47C" />
    <circle cx="1040" cy="180" r="32" fill="#D47A2C" />
    <circle cx="1080" cy="720" r="44" fill="#F4C47C" />
    <circle cx="180" cy="720" r="30" fill="#D47A2C" />
  </g>
  <g transform="translate(120 120)">
    <rect width="380" height="380" rx="40" fill="url(#plateGradient)" />
    <circle cx="190" cy="190" r="150" fill="url(#oliveGradient)" />
    <circle cx="160" cy="160" r="22" fill="#9EC4AE" />
    <circle cx="220" cy="140" r="18" fill="#9EC4AE" />
    <circle cx="210" cy="220" r="24" fill="#F4C47C" opacity="0.7" />
    <circle cx="140" cy="230" r="18" fill="#F4C47C" opacity="0.6" />
    <path d="M120 120C150 90 210 90 240 120L280 160C310 190 310 240 280 270C250 300 190 300 160 270L120 230C90 200 90 150 120 120Z" fill="#FBE6D0" opacity="0.85" />
  </g>
  <g transform="translate(500 60)">
    <rect width="580" height="400" rx="46" fill="#1B1010" />
    <ellipse cx="290" cy="220" rx="220" ry="150" fill="url(#paellaGradient)" opacity="0.92" />
    <ellipse cx="290" cy="220" rx="180" ry="120" fill="#401F14" opacity="0.55" />
    <g opacity="0.9">
      <circle cx="180" cy="180" r="26" fill="#FDECD6" />
      <circle cx="380" cy="260" r="22" fill="#FDECD6" />
      <circle cx="320" cy="170" r="24" fill="#FDECD6" />
      <circle cx="260" cy="280" r="18" fill="#FDECD6" />
      <circle cx="220" cy="230" r="20" fill="#FDECD6" />
    </g>
    <path d="M120 140C160 100 220 90 290 110C360 130 420 190 446 254C464 300 442 350 400 370C340 398 240 390 190 350C140 310 80 220 120 140Z" fill="#F4C47C" opacity="0.35" />
    <rect x="230" y="60" width="120" height="24" rx="12" fill="#F4C47C" opacity="0.65" />
    <rect x="210" y="100" width="160" height="18" rx="9" fill="#F4C47C" opacity="0.32" />
  </g>
  <g transform="translate(160 520)">
    <rect width="420" height="260" rx="44" fill="#1E1110" />
    <rect x="24" y="24" width="372" height="212" rx="38" fill="url(#dessertGradient)" />
    <circle cx="210" cy="130" r="90" fill="#FDECD6" opacity="0.85" />
    <path d="M140 150C150 120 180 100 210 100C240 100 270 120 280 150C288 170 280 190 260 200C230 220 190 220 160 200C140 190 132 170 140 150Z" fill="#401F14" />
    <path d="M180 76C188 56 210 44 230 52C250 60 260 82 252 102C246 118 226 128 210 124C194 120 172 96 180 76Z" fill="#D47A2C" />
    <circle cx="260" cy="124" r="12" fill="#F4C47C" />
    <circle cx="180" cy="132" r="10" fill="#F4C47C" />
  </g>
  <g transform="translate(640 520)">
    <rect width="440" height="320" rx="48" fill="#1B1010" />
    <rect x="36" y="36" width="368" height="248" rx="36" fill="#133840" opacity="0.86" />
    <ellipse cx="220" cy="160" rx="140" ry="96" fill="#214950" opacity="0.9" />
    <path d="M140 130C160 100 200 80 240 90C280 100 320 140 330 180C338 214 316 250 280 260C240 270 180 252 160 220C140 188 120 160 140 130Z" fill="#F4C47C" opacity="0.32" />
    <rect x="120" y="226" width="200" height="18" rx="9" fill="#FDF8F4" opacity="0.3" />
    <rect x="160" y="256" width="120" height="16" rx="8" fill="#FDF8F4" opacity="0.3" />
    <circle cx="160" cy="144" r="18" fill="#F4C47C" />
    <circle cx="280" cy="180" r="16" fill="#F4C47C" />
    <circle cx="220" cy="126" r="20" fill="#F4C47C" />
  </g>
</svg>
