<svg width="360" height="360" viewBox="0 0 360 360" fill="none" xmlns="http://www.w3.org/2000/svg">
  <defs>
    <radialGradient id="sunset" cx="0" cy="0" r="1" gradientUnits="userSpaceOnUse" gradientTransform="translate(180 140) scale(220)">
      <stop offset="0" stop-color="#FFE5C3" />
      <stop offset="1" stop-color="#FF7A5C" />
    </radialGradient>
    <linearGradient id="table" x1="80" y1="220" x2="280" y2="320" gradientUnits="userSpaceOnUse">
      <stop stop-color="#F8D8A1" />
      <stop offset="1" stop-color="#D29A54" />
    </linearGradient>
    <linearGradient id="chairTerrace" x1="72" y1="220" x2="136" y2="312" gradientUnits="userSpaceOnUse">
      <stop stop-color="#FF9F68" />
      <stop offset="1" stop-color="#D14E2A" />
    </linearGradient>
    <linearGradient id="foliage" x1="248" y1="160" x2="320" y2="240" gradientUnits="userSpaceOnUse">
      <stop stop-color="#74E087" />
      <stop offset="1" stop-color="#2E7F3D" />
    </linearGradient>
    <filter id="terraceShadow" x="40" y="40" width="280" height="292" filterUnits="userSpaceOnUse" color-interpolation-filters="sRGB">
      <feOffset dy="12" />
      <feGaussianBlur stdDeviation="16" />
      <feColorMatrix type="matrix" values="0 0 0 0 0.09 0 0 0 0 0.06 0 0 0 0 0.12 0 0 0 0.28 0" />
      <feBlend in="SourceGraphic" result="shape" />
    </filter>
  </defs>
  <rect width="360" height="360" rx="48" fill="#140807" />
  <circle cx="180" cy="150" r="160" fill="url(#sunset)" opacity="0.62" />
  <g filter="url(#terraceShadow)">
    <path d="M80 240H280L260 300H100L80 240Z" fill="url(#table)" />
    <ellipse cx="180" cy="252" rx="120" ry="44" fill="#8F5B2F" opacity="0.35" />
    <ellipse cx="180" cy="230" rx="102" ry="32" fill="#FFF1DA" />
    <ellipse cx="180" cy="226" rx="86" ry="26" fill="#F7D8A8" />
    <path d="M116 214C128 198 152 188 180 188C208 188 232 198 244 214" stroke="#FFE7CC" stroke-width="8" stroke-linecap="round" />
    <path d="M76 220L96 296" stroke="#8F4A22" stroke-width="16" stroke-linecap="round" />
    <path d="M132 220L112 296" stroke="#8F4A22" stroke-width="16" stroke-linecap="round" />
    <path d="M284 220L304 296" stroke="#8F4A22" stroke-width="16" stroke-linecap="round" />
    <path d="M228 220L248 296" stroke="#8F4A22" stroke-width="16" stroke-linecap="round" />
    <rect x="72" y="224" width="56" height="60" rx="22" fill="url(#chairTerrace)" />
    <rect x="232" y="224" width="56" height="60" rx="22" fill="url(#chairTerrace)" transform="scale(-1,1) translate(-520,0)" />
  </g>
  <path d="M252 192C262 174 288 168 308 178C328 188 336 212 324 230C312 248 284 250 264 238C248 228 244 210 252 192Z" fill="url(#foliage)" />
  <circle cx="288" cy="168" r="12" fill="#FFF59D" />
  <path d="M120 100C132 88 152 80 180 80C208 80 228 88 240 100" stroke="#FFEAD2" stroke-width="8" stroke-linecap="round" />
  <path d="M148 312H212" stroke="#F7D8A8" stroke-width="10" stroke-linecap="round" opacity="0.6" />
  <g opacity="0.55">
    <circle cx="88" cy="90" r="10" fill="#FF8A6C" />
    <circle cx="272" cy="76" r="8" fill="#FFD3A6" />
  </g>
</svg>
