<svg width="1200" height="900" viewBox="0 0 1200 900" fill="none" xmlns="http://www.w3.org/2000/svg">
  <defs>
    <linearGradient id="nightSky" x1="0" y1="0" x2="0" y2="1">
      <stop offset="0" stop-color="#1C2B3C" />
      <stop offset="1" stop-color="#0A1018" />
    </linearGradient>
    <radialGradient id="lanternGlow" cx="0" cy="0" r="1" gradientUnits="userSpaceOnUse" gradientTransform="translate(340 220) scale(260)">
      <stop stop-color="#F4C47C" stop-opacity="0.9" />
      <stop offset="1" stop-color="#F4C47C" stop-opacity="0" />
    </radialGradient>
    <linearGradient id="seaGradient" x1="0" y1="0" x2="1" y2="0">
      <stop offset="0" stop-color="#214950" />
      <stop offset="1" stop-color="#16343B" />
    </linearGradient>
    <linearGradient id="tableTop" x1="0" y1="0" x2="1" y2="1">
      <stop offset="0" stop-color="#5C2E1B" />
      <stop offset="1" stop-color="#2A140C" />
    </linearGradient>
  </defs>
  <rect width="1200" height="900" rx="52" fill="url(#nightSky)" />
  <rect x="60" y="540" width="1080" height="260" rx="44" fill="#0E171E" opacity="0.65" />
  <rect x="80" y="560" width="1040" height="220" rx="40" fill="#13242D" />
  <path d="M0 480C120 430 260 410 380 420C520 430 700 490 860 500C980 508 1100 488 1200 460V280C1080 310 940 320 840 310C640 290 420 200 200 210C140 212 70 224 0 242V480Z" fill="url(#seaGradient)" opacity="0.85" />
  <rect x="120" y="200" width="960" height="320" rx="48" fill="#112029" />
  <path d="M120 340H1080" stroke="#F4C47C" stroke-opacity="0.16" stroke-width="2" stroke-dasharray="12 18" />
  <circle cx="360" cy="220" r="200" fill="url(#lanternGlow)" />
  <g opacity="0.45">
    <circle cx="900" cy="180" r="30" fill="#F4C47C" />
    <circle cx="980" cy="240" r="24" fill="#D47A2C" />
    <circle cx="840" cy="260" r="20" fill="#F4C47C" />
  </g>
  <g transform="translate(220 360)" opacity="0.9">
    <rect width="760" height="320" rx="40" fill="url(#tableTop)" />
    <rect x="60" y="60" width="640" height="200" rx="30" fill="#321A12" />
    <circle cx="210" cy="160" r="78" fill="#F4C47C" opacity="0.65" />
    <circle cx="380" cy="150" r="72" fill="#D47A2C" opacity="0.55" />
    <circle cx="540" cy="170" r="64" fill="#F4C47C" opacity="0.5" />
    <rect x="160" y="130" width="100" height="28" rx="14" fill="#FDF8F4" opacity="0.28" />
    <rect x="320" y="130" width="120" height="28" rx="14" fill="#FDF8F4" opacity="0.28" />
    <rect x="480" y="130" width="100" height="28" rx="14" fill="#FDF8F4" opacity="0.28" />
    <circle cx="210" cy="160" r="24" fill="#401F14" opacity="0.6" />
    <circle cx="380" cy="150" r="20" fill="#401F14" opacity="0.6" />
    <circle cx="540" cy="170" r="22" fill="#401F14" opacity="0.6" />
  </g>
  <g opacity="0.3">
    <circle cx="200" cy="720" r="24" fill="#F4C47C" />
    <circle cx="1000" cy="740" r="28" fill="#D47A2C" />
    <circle cx="900" cy="640" r="20" fill="#F4C47C" />
  </g>
</svg>
