<svg width="1000" height="800" viewBox="0 0 1000 800" fill="none" xmlns="http://www.w3.org/2000/svg">
  <defs>
    <linearGradient id="panel" x1="0" y1="0" x2="1" y2="1">
      <stop offset="0" stop-color="#214950" />
      <stop offset="1" stop-color="#133840" />
    </linearGradient>
    <linearGradient id="card1" x1="0" y1="0" x2="1" y2="1">
      <stop offset="0" stop-color="#F4C47C" />
      <stop offset="1" stop-color="#D47A2C" />
    </linearGradient>
    <linearGradient id="card2" x1="0" y1="1" x2="1" y2="0">
      <stop offset="0" stop-color="#FBE6D0" />
      <stop offset="1" stop-color="#F4C47C" />
    </linearGradient>
  </defs>
  <rect width="1000" height="800" rx="48" fill="#120908" />
  <rect x="80" y="120" width="840" height="560" rx="44" fill="url(#panel)" />
  <g opacity="0.32">
    <circle cx="200" cy="200" r="28" fill="#F4C47C" />
    <circle cx="840" cy="220" r="22" fill="#D47A2C" />
    <circle cx="740" cy="660" r="30" fill="#F4C47C" />
  </g>
  <g transform="translate(160 200)">
    <rect width="280" height="360" rx="32" fill="#0E2126" opacity="0.8" />
    <rect x="32" y="48" width="216" height="80" rx="24" fill="url(#card1)" />
    <circle cx="140" cy="92" r="34" fill="#FDF8F4" opacity="0.2" />
    <rect x="52" y="156" width="176" height="18" rx="9" fill="#FDF8F4" opacity="0.35" />
    <rect x="52" y="188" width="200" height="18" rx="9" fill="#FDF8F4" opacity="0.28" />
    <rect x="52" y="220" width="144" height="18" rx="9" fill="#FDF8F4" opacity="0.22" />
    <rect x="52" y="278" width="184" height="24" rx="12" fill="#F4C47C" opacity="0.45" />
    <rect x="52" y="318" width="140" height="18" rx="9" fill="#FDF8F4" opacity="0.3" />
  </g>
  <g transform="translate(480 180)">
    <rect width="360" height="200" rx="34" fill="#0E2126" opacity="0.8" />
    <rect x="40" y="40" width="280" height="80" rx="26" fill="url(#card2)" />
    <rect x="60" y="140" width="140" height="20" rx="10" fill="#FDF8F4" opacity="0.36" />
    <rect x="220" y="140" width="100" height="20" rx="10" fill="#FDF8F4" opacity="0.28" />
  </g>
  <g transform="translate(440 420)">
    <rect width="420" height="200" rx="36" fill="#0E2126" opacity="0.8" />
    <rect x="48" y="44" width="324" height="48" rx="24" fill="#133840" opacity="0.8" />
    <rect x="72" y="108" width="180" height="20" rx="10" fill="#FDF8F4" opacity="0.35" />
    <rect x="268" y="108" width="96" height="20" rx="10" fill="#FDF8F4" opacity="0.28" />
    <circle cx="120" cy="132" r="28" fill="#F4C47C" opacity="0.48" />
    <circle cx="280" cy="132" r="24" fill="#D47A2C" opacity="0.45" />
  </g>
</svg>
